<svg width="40" height="40" viewBox="0 0 40 40" fill="none" xmlns="http://www.w3.org/2000/svg">
<path d="M30 10V6.66666H24.6917C24.3493 5.69474 23.7146 4.85258 22.8746 4.25577C22.0346 3.65895 21.0304 3.33673 20 3.33333C17.2433 3.33333 15 5.57666 15 8.33333V18C13.4819 18.8817 12.2214 20.1459 11.3441 21.6665C10.4669 23.1871 10.0034 24.9111 10 26.6667C10 32.1817 14.485 36.6667 20 36.6667C25.515 36.6667 30 32.1817 30 26.6667C29.9966 24.9111 29.5331 23.1871 28.6559 21.6665C27.7786 20.1459 26.5181 18.8817 25 18V16.6667H30V13.3333H25V10H30ZM22.6583 20.54C23.8472 21.0645 24.8585 21.9224 25.5698 23.0097C26.2812 24.0971 26.6622 25.3673 26.6667 26.6667C26.6667 30.3433 23.6767 33.3333 20 33.3333C16.3233 33.3333 13.3333 30.3433 13.3333 26.6667C13.3333 24.025 14.9067 21.6217 17.3417 20.54L18.3333 20.1017V8.33333C18.3333 7.8913 18.5089 7.46738 18.8215 7.15482C19.134 6.84226 19.558 6.66666 20 6.66666C20.442 6.66666 20.866 6.84226 21.1785 7.15482C21.4911 7.46738 21.6667 7.8913 21.6667 8.33333V20.1017L22.6583 20.54Z" fill="#0E2D44"/>
<path d="M23.5355 23.954C21.586 22.5615 18.414 22.5615 16.4645 23.954C14.515 25.3465 14.515 27.6122 16.4645 29.0047C18.414 30.3972 21.586 30.3972 23.5355 29.0047C25.485 27.6122 25.485 25.3465 23.5355 23.954ZM20 27.9946L16.4645 26.4794L20 24.9641L23.5355 26.4794L20 27.9946Z" fill="#0E2D44"/>
<path d="M20 27.1429C20.5523 27.1429 21 26.8231 21 26.4286C21 26.0341 20.5523 25.7143 20 25.7143C19.4477 25.7143 19 26.0341 19 26.4286C19 26.8231 19.4477 27.1429 20 27.1429Z" fill="#0E2D44"/>
</svg>
