<svg width="40" height="41" viewBox="0 0 40 41" fill="none" xmlns="http://www.w3.org/2000/svg">
<path d="M30 10.1232V6.78991H24.6917C24.3493 5.81799 23.7146 4.97583 22.8746 4.37901C22.0346 3.7822 21.0304 3.45998 20 3.45657C17.2433 3.45657 15 5.69991 15 8.45657V18.1232C13.4819 19.0049 12.2214 20.2691 11.3441 21.7897C10.4669 23.3104 10.0034 25.0344 10 26.7899C10 32.3049 14.485 36.7899 20 36.7899C25.515 36.7899 30 32.3049 30 26.7899C29.9966 25.0344 29.5331 23.3104 28.6559 21.7897C27.7786 20.2691 26.5181 19.0049 25 18.1232V16.7899H30V13.4566H25V10.1232H30ZM22.6583 20.6632C23.8472 21.1878 24.8585 22.0456 25.5698 23.133C26.2812 24.2203 26.6622 25.4905 26.6667 26.7899C26.6667 30.4666 23.6767 33.4566 20 33.4566C16.3233 33.4566 13.3333 30.4666 13.3333 26.7899C13.3333 24.1482 14.9067 21.7449 17.3417 20.6632L18.3333 20.2249V8.45657C18.3333 8.01455 18.5089 7.59062 18.8215 7.27806C19.134 6.9655 19.558 6.78991 20 6.78991C20.442 6.78991 20.866 6.9655 21.1785 7.27806C21.4911 7.59062 21.6667 8.01455 21.6667 8.45657V20.2249L22.6583 20.6632Z" fill="#E9E9E9"/>
<path d="M23.5355 24.0772C21.586 22.6847 18.414 22.6847 16.4645 24.0772C14.515 25.4697 14.515 27.7355 16.4645 29.128C18.414 30.5205 21.586 30.5205 23.5355 29.128C25.485 27.7355 25.485 25.4697 23.5355 24.0772ZM20 28.1178L16.4645 26.6026L20 25.0874L23.5355 26.6026L20 28.1178Z" fill="#E9E9E9"/>
<path d="M20 27.2661C20.5523 27.2661 21 26.9463 21 26.5518C21 26.1574 20.5523 25.8376 20 25.8376C19.4477 25.8376 19 26.1574 19 26.5518C19 26.9463 19.4477 27.2661 20 27.2661Z" fill="#E9E9E9"/>
</svg>
