<svg width="33" height="33" viewBox="0 0 33 33" fill="none" xmlns="http://www.w3.org/2000/svg">
<g id="bx-search.svg">
<path id="Vector" d="M13.5865 24.6023C15.3596 24.6019 17.0943 24.1571 18.637 23.3209C19.5255 22.8393 20.653 22.8887 21.3676 23.6034L25.6042 27.8399C25.8438 28.0796 26.1657 28.2189 26.5044 28.2297V28.2297C27.2737 28.2543 27.9038 27.6241 27.8793 26.8548V26.8548C27.8685 26.5161 27.7291 26.1942 27.4895 25.9546L24.9318 23.3969L23.2532 21.7183C22.5384 21.0035 22.4892 19.8758 22.971 18.9873C23.8076 17.4444 24.2527 15.7091 24.2532 13.9356C24.2532 8.05425 19.4678 3.26892 13.5865 3.26892C7.70516 3.26892 2.91983 8.05425 2.91983 13.9356C2.91983 19.8169 7.70516 24.6023 13.5865 24.6023ZM13.5865 5.93559C17.9985 5.93559 21.5865 9.52359 21.5865 13.9356C21.5865 18.3476 17.9985 21.9356 13.5865 21.9356C9.1745 21.9356 5.5865 18.3476 5.5865 13.9356C5.5865 9.52359 9.1745 5.93559 13.5865 5.93559Z" fill="#F1F1F1"/>
</g>
</svg>
